<?xml version="1.0" encoding="UTF-8"?> <svg xmlns="http://www.w3.org/2000/svg" width="196.676" height="128.092" viewBox="0 0 196.676 128.092"><g id="Group_410" data-name="Group 410" transform="translate(-86.711 -39.17)"><g id="Group_401" data-name="Group 401" transform="translate(86.711 108.934)"><path id="Path_280" data-name="Path 280" d="M105.167,195.492c-.065,5.349-.122,14.756-.191,20.4,5.259,1.547,9.256,7.694,9.88,13.14.857,7.48-2.835,21.882-11.69,23.572-6.5,1.24-10.754-4.924-13.024-10.109a25.8,25.8,0,0,1-1.99-13.79c.757-5.429,4.566-11.327,9.862-12.745.075-6.118.183-14.933.248-20.282" transform="translate(-87.379 -194.961)" fill="#f9d97d"></path><g id="Group_400" data-name="Group 400"><path id="Path_281" data-name="Path 281" d="M103.954,194.794c-.083,6.8-.109,13.6-.192,20.4a.564.564,0,0,0,.362.564,13.179,13.179,0,0,1,7.139,5.992,16.764,16.764,0,0,1,2.493,8.27,29.584,29.584,0,0,1-3.579,14.854,14.351,14.351,0,0,1-4.8,5.375,8.344,8.344,0,0,1-7.68.651c-2.714-1.18-4.7-3.693-6.158-6.187a27.223,27.223,0,0,1-3.508-10.02,20.522,20.522,0,0,1,1.181-10.763,14.676,14.676,0,0,1,6.073-7.191,9.963,9.963,0,0,1,2.155-.889.564.564,0,0,0,.454-.492l.248-20.282c.009-.7-1.083-.8-1.092-.1L96.8,215.262l.454-.492a13.64,13.64,0,0,0-7.726,6.185,19.423,19.423,0,0,0-2.817,10.367,27.269,27.269,0,0,0,2.746,11.8,20.189,20.189,0,0,0,5.7,7.541,9.383,9.383,0,0,0,8.6,1.529,12.4,12.4,0,0,0,6.026-4.674,25.161,25.161,0,0,0,3.642-7.633,32.985,32.985,0,0,0,1.405-8.155,18.466,18.466,0,0,0-1.5-8.387,16.323,16.323,0,0,0-6.6-7.654,11.277,11.277,0,0,0-2.239-.961l.362.564c.083-6.8.109-13.6.192-20.4.009-.7-1.084-.8-1.092-.1Z" transform="translate(-86.711 -194.311)" fill="#1e1e1b"></path></g></g><g id="Group_403" data-name="Group 403" transform="translate(96.49 103.058)"><path id="Path_282" data-name="Path 282" d="M117.769,182.519c-.06,1.323-.012,3.565-.051,5.069a.765.765,0,0,1-.449.683,9.986,9.986,0,0,1-7.166-.1.727.727,0,0,1-.408-.657c0-1.505.1-3.763.072-5.095" transform="translate(-109.138 -181.891)" fill="#f9d97d"></path><g id="Group_402" data-name="Group 402"><path id="Path_283" data-name="Path 283" d="M116.542,181.823c-.051,1.19-.031,2.383-.035,3.574q0,.435-.005.87c0,.192.068.6-.043.769s-.407.216-.578.272a6.773,6.773,0,0,1-.827.207,10.394,10.394,0,0,1-3.46.065,7.373,7.373,0,0,1-1.611-.41c-.217-.084-.4-.113-.424-.363a7.156,7.156,0,0,1,.009-.884c.024-1.367.089-2.735.063-4.1-.013-.7-1.105-.8-1.092-.1.026,1.388-.042,2.777-.065,4.165-.011.676-.135,1.465.445,1.952a4.245,4.245,0,0,0,1.75.675,11.423,11.423,0,0,0,4.11.157,7.807,7.807,0,0,0,1.9-.494,1.508,1.508,0,0,0,.914-1.582c.025-1.559-.023-3.12.044-4.679.03-.7-1.062-.8-1.092-.1Z" transform="translate(-108.457 -181.243)" fill="#1e1e1b"></path></g></g><g id="Group_405" data-name="Group 405" transform="translate(93.845 39.17)"><path id="Path_284" data-name="Path 284" d="M106.339,104.077a.752.752,0,0,1-.414-.641L104.052,65a97.454,97.454,0,0,1-.065-12.709c.281-3.417,1.017-7,3.126-9.438a9.217,9.217,0,0,1,1.367-1.3c1.043-.8,2.545-1.59,3.879-1.142a7.426,7.426,0,0,1,3.079,2.545c2.048,2.489,2.7,6.088,2.894,9.511a97.4,97.4,0,0,1-.376,12.7l-2.812,38.367a.769.769,0,0,1-.441.647A11.584,11.584,0,0,1,106.339,104.077Z" transform="translate(-103.25 -39.781)" fill="#f9d97d"></path><g id="Group_404" data-name="Group 404" transform="translate(0)"><path id="Path_285" data-name="Path 285" d="M105.975,103.015c-.23-.147-.192-.436-.2-.684l-.06-1.237-.219-4.493-.665-13.647-.652-13.391c-.131-2.684-.273-5.369-.387-8.054-.1-2.48-.163-4.964-.068-7.445a32.122,32.122,0,0,1,.771-6.492,11.655,11.655,0,0,1,2.617-5.26A7.5,7.5,0,0,1,109.6,40.5a2.807,2.807,0,0,1,2.926.355c3.348,2.408,4.289,6.766,4.558,10.628a91.617,91.617,0,0,1-.354,13.048l-.507,6.92-1.02,13.917-.952,12.986-.273,3.724a5.122,5.122,0,0,1-.054.743c-.059.261-.255.31-.5.4a9.216,9.216,0,0,1-2.585.5,10.153,10.153,0,0,1-4.99-.779c-.637-.3-1,.732-.37,1.032a12.494,12.494,0,0,0,7.929.4c.76-.233,1.493-.523,1.607-1.411.08-.623.093-1.262.139-1.888L116,89.533l1.093-14.913.7-9.49c.192-2.623.392-5.248.469-7.878.126-4.3.181-9.1-1.707-13.081a10.535,10.535,0,0,0-3.765-4.456c-1.891-1.122-3.881-.362-5.481.922-3.307,2.655-4.224,7.094-4.546,11.105a118.163,118.163,0,0,0,.2,15.183l.592,12.159.72,14.786.428,8.784a1.453,1.453,0,0,0,.656,1.264C105.946,104.3,106.573,103.4,105.975,103.015Z" transform="translate(-102.575 -39.17)" fill="#1e1e1b"></path></g></g><path id="Path_286" data-name="Path 286" d="M118.521,55.992a7.782,7.782,0,0,0-3.656,3.664c.037-.891.089-1.782.161-2.671a5.656,5.656,0,0,0,0-6.858.242.242,0,0,0-.381.013,6.046,6.046,0,0,0-.08,6.613c0,.031,0,.061-.006.091a.2.2,0,0,0-.007.1q-.125,1.536-.179,3.075a6.592,6.592,0,0,0-1.206-1.557,8.127,8.127,0,0,0-3.1-1.42.243.243,0,0,0-.3.322,6.317,6.317,0,0,0,4.571,4.155c-.012.9-.012,1.806.013,2.709.008.3.485.356.477.048-.023-.862-.024-1.725-.014-2.588a.224.224,0,0,0,.028-.006,7.808,7.808,0,0,0,2.846-2.026,5.325,5.325,0,0,0,1.172-3.415A.243.243,0,0,0,118.521,55.992Z" transform="translate(-12.679 -5.982)" fill="#fff"></path><g id="Group_409" data-name="Group 409" transform="translate(125.924 41.461)"><g id="Group_406" data-name="Group 406" transform="translate(0 0)"><path id="Path_287" data-name="Path 287" d="M175.75,83.36q-1.837,0-1.838-1.031,0-.807,1.031-.807l1.392.139a2.127,2.127,0,0,0,1.059-.237,1.613,1.613,0,0,0,.64-1.017,26.9,26.9,0,0,0,.446-6.293V53.37q0-4.622-1.921-4.9-1.393-.223-1.392-.919,0-.641,1.309-.905a14.913,14.913,0,0,0,2.367-.668q1.058-.4,1.866-.78t1.378-.654a2.25,2.25,0,0,1,.821-.279.567.567,0,0,1,.641.641,2.024,2.024,0,0,1-.112.64,10.992,10.992,0,0,0-.612,3.815q-.028,2.312-.028,3.787V74.115a29.708,29.708,0,0,0,.334,5.973,2.309,2.309,0,0,0,.752,1.336,2.124,2.124,0,0,0,1.058.237l1.392-.139q1.03,0,1.03.807,0,1.031-1.837,1.031a12.212,12.212,0,0,1-2.2-.209,14.647,14.647,0,0,0-2.617-.209,15.854,15.854,0,0,0-2.687.209A13.386,13.386,0,0,1,175.75,83.36Z" transform="translate(-173.912 -44.264)" fill="#1e1e1b"></path><path id="Path_288" data-name="Path 288" d="M217.432,85.031q-1.865,0-1.865-1.031,0-.807,1.03-.807l1.392.139a2.125,2.125,0,0,0,1.058-.237,1.707,1.707,0,0,0,.668-1.017,26.682,26.682,0,0,0,.446-6.293V67.4a9.743,9.743,0,0,0-.376-3.494,2.291,2.291,0,0,0-.849-1,4.83,4.83,0,0,0-1.573-.418q-1.1-.152-1.1-.877,0-.64,1.448-.947a17.717,17.717,0,0,0,4.567-1.364,6.3,6.3,0,0,1,2.367-.975.566.566,0,0,1,.64.641,2.025,2.025,0,0,1-.112.64q-.641,1.922-.64,7.574v8.6a28.537,28.537,0,0,0,.348,5.987,2.346,2.346,0,0,0,.766,1.323,2.124,2.124,0,0,0,1.058.237l1.393-.139q1.029,0,1.03.807,0,1.031-1.865,1.031a13.375,13.375,0,0,1-2.27-.209,15.318,15.318,0,0,0-2.6-.209,16.069,16.069,0,0,0-2.645.209A14.118,14.118,0,0,1,217.432,85.031Zm7.658-34.989a2.776,2.776,0,0,1-.793,2.005,2.842,2.842,0,0,1-2.144.821,2.71,2.71,0,0,1-2.089-.793,2.492,2.492,0,0,1-.738-1.727,3.279,3.279,0,0,1,.251-1.434,2.974,2.974,0,0,1,.64-.863,3.088,3.088,0,0,1,2.1-.752,2.646,2.646,0,0,1,2.771,2.743Z" transform="translate(-196.835 -45.934)" fill="#1e1e1b"></path><path id="Path_289" data-name="Path 289" d="M271.254,66.291q0,.752-.891.752l-7.909-.084V82.386q0,4.317,2.088,5.124a4.5,4.5,0,0,0,3.077-.042,9.474,9.474,0,0,0,1.267-.626,11.253,11.253,0,0,0,.947-.626,1.249,1.249,0,0,1,.738-.292.78.78,0,0,1,.626.39,1.336,1.336,0,0,1,.279.779q0,.975-2.479,2.339a9.67,9.67,0,0,1-4.762,1.058,5.392,5.392,0,0,1-4.483-2.046,8.927,8.927,0,0,1-1.615-5.667v-15.9h-1.7q-2,0-2-1.031,0-.751,1.114-1.03a4.518,4.518,0,0,0,1.922-.988,6.291,6.291,0,0,0,1.323-1.615,9.684,9.684,0,0,0,.821-1.879q.306-.975.557-1.783.612-1.838,1.392-1.837.89,0,.891,1.587v6.293l7.825-.167q.585,0,.919,1.392A2.834,2.834,0,0,1,271.254,66.291Z" transform="translate(-218.225 -51.114)" fill="#1e1e1b"></path><path id="Path_290" data-name="Path 290" d="M318.173,66.291q0,.752-.891.752l-7.909-.084V82.386q0,4.317,2.089,5.124a4.5,4.5,0,0,0,3.077-.042,9.507,9.507,0,0,0,1.267-.626,11.238,11.238,0,0,0,.947-.626,1.249,1.249,0,0,1,.738-.292.78.78,0,0,1,.626.39,1.338,1.338,0,0,1,.278.779q0,.975-2.479,2.339a9.668,9.668,0,0,1-4.761,1.058,5.392,5.392,0,0,1-4.483-2.046,8.927,8.927,0,0,1-1.615-5.667v-15.9h-1.7q-2,0-2-1.031,0-.751,1.114-1.03a4.518,4.518,0,0,0,1.921-.988,6.29,6.29,0,0,0,1.323-1.615,9.63,9.63,0,0,0,.821-1.879q.306-.975.557-1.783.612-1.838,1.392-1.837.89,0,.891,1.587v6.293l7.825-.167q.585,0,.919,1.392A2.885,2.885,0,0,1,318.173,66.291Z" transform="translate(-244.045 -51.114)" fill="#1e1e1b"></path><path id="Path_291" data-name="Path 291" d="M351.225,83.36q-1.837,0-1.838-1.031,0-.807,1.031-.807l1.392.139a2.127,2.127,0,0,0,1.059-.237,1.613,1.613,0,0,0,.64-1.017,26.9,26.9,0,0,0,.446-6.293V53.37q0-4.622-1.921-4.9-1.393-.223-1.392-.919,0-.641,1.309-.905a14.9,14.9,0,0,0,2.367-.668q1.058-.4,1.866-.78t1.378-.654a2.25,2.25,0,0,1,.821-.279.567.567,0,0,1,.641.641,2.025,2.025,0,0,1-.112.64,10.992,10.992,0,0,0-.612,3.815q-.028,2.312-.028,3.787V74.115a29.7,29.7,0,0,0,.334,5.973,2.309,2.309,0,0,0,.752,1.336,2.124,2.124,0,0,0,1.058.237l1.393-.139q1.029,0,1.03.807,0,1.031-1.837,1.031a12.213,12.213,0,0,1-2.2-.209,14.647,14.647,0,0,0-2.617-.209,15.858,15.858,0,0,0-2.687.209A13.386,13.386,0,0,1,351.225,83.36Z" transform="translate(-270.479 -44.264)" fill="#1e1e1b"></path><path id="Path_292" data-name="Path 292" d="M395.292,94.941a12.523,12.523,0,0,1-2.507-4.246,16.064,16.064,0,0,1-.877-5.444,14.334,14.334,0,0,1,1.03-5.5,12.744,12.744,0,0,1,12.113-7.992,9.633,9.633,0,0,1,7.379,3.007,10.153,10.153,0,0,1,2.673,7.156,3.44,3.44,0,0,1-.376,1.908,1.442,1.442,0,0,1-.933.612q-.557.1-1.532.167t-2.367.153q-1.393.084-3.105.167t-3.494.195q-4.094.251-6.572.5.612,7.491,5.736,9.718a8.853,8.853,0,0,0,3.564.724,8.58,8.58,0,0,0,6.349-2.339q1-1,1.532-1,1,0,1,1.2a2.379,2.379,0,0,1-.836,1.476,11.41,11.41,0,0,1-2.4,1.782,12.663,12.663,0,0,1-6.432,1.587,15.11,15.11,0,0,1-6-1.016A11.452,11.452,0,0,1,395.292,94.941Zm1.378-11.375q13.059-.668,13.756-1.42a3.092,3.092,0,0,0,.25-1.643,6.983,6.983,0,0,0-.529-2.659,6.884,6.884,0,0,0-1.42-2.214,6.155,6.155,0,0,0-4.567-1.866,6.484,6.484,0,0,0-5.207,2.59A11.206,11.206,0,0,0,396.671,83.565Z" transform="translate(-293.879 -59.395)" fill="#1e1e1b"></path></g><g id="Group_407" data-name="Group 407" transform="translate(0.808 50.883)"><path id="Path_293" data-name="Path 293" d="M176.432,180.155a3.546,3.546,0,0,1-.724-1.726,1.969,1.969,0,0,1,.181-.947,2.4,2.4,0,0,1,.487-.6,2.088,2.088,0,0,1,1.406-.7,1.529,1.529,0,0,1,1.044.32,3.034,3.034,0,0,1,.682,1.253,7.3,7.3,0,0,0,.919,1.8,6.666,6.666,0,0,0,1.434,1.5,7.14,7.14,0,0,0,4.428,1.365,6.626,6.626,0,0,0,3.926-1.142,3.457,3.457,0,0,0,1.7-2.923,4.034,4.034,0,0,0-1.532-3.119,17.523,17.523,0,0,0-4.873-2.715,28.607,28.607,0,0,1-4.594-2.186,10.463,10.463,0,0,1-2.228-1.893,6.575,6.575,0,0,1-1.643-4.4,5.683,5.683,0,0,1,2.576-4.734,12.039,12.039,0,0,1,12.155-.473q2.005,1.253,2.005,2.645a1.49,1.49,0,0,1-.738,1.239,2.465,2.465,0,0,1-1.392.515,1.7,1.7,0,0,1-1.016-.264,6,6,0,0,1-1.086-1.378,4.787,4.787,0,0,0-4.316-2.2q-3.258,0-4.316,1.949a2.443,2.443,0,0,0-.306,1.2,3.026,3.026,0,0,0,.264,1.239,3.768,3.768,0,0,0,.988,1.239,23.6,23.6,0,0,0,5.625,2.98q8.019,3.314,8.02,8.493a6.891,6.891,0,0,1-2.812,5.68,12.648,12.648,0,0,1-14.258,0A7.79,7.79,0,0,1,176.432,180.155Z" transform="translate(-175.708 -157.418)" fill="#1e1e1b"></path><path id="Path_294" data-name="Path 294" d="M233.317,193.452l2.339.194a.949.949,0,0,0,.585-.167,1.375,1.375,0,0,0,.362-.78,28.871,28.871,0,0,0,.251-4.9V166.5a8.767,8.767,0,0,0-.418-3.411,2.619,2.619,0,0,0-.891-1.072,4.585,4.585,0,0,0-1.517-.445q-1.045-.167-1.044-.863,0-.64,1.42-.919a17.27,17.27,0,0,0,4.595-1.42,6.35,6.35,0,0,1,2.284-.947.566.566,0,0,1,.64.641,1.828,1.828,0,0,1-.125.64q-.125.334-.265.78a15.981,15.981,0,0,0-.306,2.757q3.4-4.818,8.577-4.818a10.327,10.327,0,0,1,8.381,3.76,14.4,14.4,0,0,1,3.007,9.467,13.654,13.654,0,0,1-3.731,9.691,12.2,12.2,0,0,1-9.3,4.037,11.755,11.755,0,0,1-6.989-2.116V187.8q0,5.262.446,5.68a.741.741,0,0,0,.5.167l3.732-.306a1.179,1.179,0,0,1,.891.348,1.058,1.058,0,0,1,.334.738q0,1.2-2.033,1.2l-5.876-.418a16.6,16.6,0,0,0-2.687.209,14.326,14.326,0,0,1-2.325.21,2.159,2.159,0,0,1-1.462-.376,1.086,1.086,0,0,1-.4-.793.977.977,0,0,1,1.031-1Zm7.852-15.928a8.18,8.18,0,0,0,5.43,4.455,9.482,9.482,0,0,0,2.562.334,6.832,6.832,0,0,0,2.743-.6,6.411,6.411,0,0,0,2.409-1.851q2.256-2.757,2.256-7.686a14.7,14.7,0,0,0-2.367-8.772,6.659,6.659,0,0,0-5.6-3.119,7.856,7.856,0,0,0-6.071,3.007,9.59,9.59,0,0,0-1.364,2.117Z" transform="translate(-206.844 -157.418)" fill="#1e1e1b"></path><path id="Path_295" data-name="Path 295" d="M310.725,171.314a14.454,14.454,0,0,1,.974-5.235,13.723,13.723,0,0,1,2.757-4.455,12.707,12.707,0,0,1,9.718-4.205q6.46,0,9.941,3.871a13.123,13.123,0,0,1,3.146,9.106,14.017,14.017,0,0,1-3.759,9.774,12.564,12.564,0,0,1-9.691,4.2q-6.461,0-9.913-3.87A13.17,13.17,0,0,1,310.725,171.314Zm4.706-1.17a16.738,16.738,0,0,0,.752,5.1,11.39,11.39,0,0,0,2.06,3.926,8.093,8.093,0,0,0,6.544,3.174,6.94,6.94,0,0,0,5.709-2.784,11.693,11.693,0,0,0,2.283-7.463q0-6.042-2.785-9.468a8.2,8.2,0,0,0-6.572-3.147,6.942,6.942,0,0,0-5.709,2.785A12.4,12.4,0,0,0,315.431,170.144Z" transform="translate(-250.01 -157.418)" fill="#1e1e1b"></path><path id="Path_296" data-name="Path 296" d="M383.218,171.314a14.453,14.453,0,0,1,.974-5.235,13.721,13.721,0,0,1,2.757-4.455,12.708,12.708,0,0,1,9.719-4.205q6.46,0,9.941,3.871a13.123,13.123,0,0,1,3.146,9.106A14.016,14.016,0,0,1,406,180.168a12.563,12.563,0,0,1-9.69,4.2q-6.461,0-9.913-3.87A13.168,13.168,0,0,1,383.218,171.314Zm4.706-1.17a16.739,16.739,0,0,0,.752,5.1,11.389,11.389,0,0,0,2.06,3.926,8.093,8.093,0,0,0,6.544,3.174,6.939,6.939,0,0,0,5.708-2.784,11.691,11.691,0,0,0,2.284-7.463q0-6.042-2.784-9.468a8.2,8.2,0,0,0-6.572-3.147,6.941,6.941,0,0,0-5.709,2.785A12.4,12.4,0,0,0,387.924,170.144Z" transform="translate(-289.904 -157.418)" fill="#1e1e1b"></path><path id="Path_297" data-name="Path 297" d="M456.248,184.095q-1.837,0-1.837-1.03,0-.807,1.03-.807l1.476.139a2.121,2.121,0,0,0,1.058-.237,1.609,1.609,0,0,0,.64-1.016,26.909,26.909,0,0,0,.446-6.293v-8.326a9.739,9.739,0,0,0-.375-3.523,2.173,2.173,0,0,0-.906-.974,6.085,6.085,0,0,0-1.643-.446q-1.114-.181-1.114-.877,0-.64,1.42-.919a19.715,19.715,0,0,0,4.79-1.42,5.9,5.9,0,0,1,2.27-.947.56.56,0,0,1,.626.641,2.025,2.025,0,0,1-.112.64,13.787,13.787,0,0,0-.612,4.316,11.62,11.62,0,0,1,3.968-4.149,9.014,9.014,0,0,1,4.706-1.448,11.64,11.64,0,0,1,3.941.585,7.087,7.087,0,0,1,2.757,1.782q2.339,2.507,2.339,7.379v7.686a29.694,29.694,0,0,0,.334,5.973,2.3,2.3,0,0,0,.752,1.336,2.119,2.119,0,0,0,1.058.237l1.448-.139q1.029,0,1.031.807,0,1.031-1.866,1.03a13.52,13.52,0,0,1-2.3-.209,15.277,15.277,0,0,0-2.59-.209,16.025,16.025,0,0,0-2.632.209,14.26,14.26,0,0,1-2.339.209q-1.866,0-1.865-1.03,0-.807,1.03-.807l1.448.139a2.122,2.122,0,0,0,1.059-.237,1.706,1.706,0,0,0,.668-1.016,26.689,26.689,0,0,0,.446-6.293V168.5q0-7.963-5.792-7.964a7.125,7.125,0,0,0-6.377,3.7,11.5,11.5,0,0,0-1.253,3.342v7.268a29.729,29.729,0,0,0,.334,5.973,2.308,2.308,0,0,0,.752,1.336,2.121,2.121,0,0,0,1.059.237l1.476-.139q1.029,0,1.03.807,0,1.031-1.837,1.03a12.9,12.9,0,0,1-2.242-.209,15.418,15.418,0,0,0-2.659-.209,16.4,16.4,0,0,0-2.715.209A14.017,14.017,0,0,1,456.248,184.095Z" transform="translate(-329.083 -157.418)" fill="#1e1e1b"></path></g><g id="Group_408" data-name="Group 408" transform="translate(0.947 81.578)"><path id="Path_298" data-name="Path 298" d="M177.883,267.306q-1.866,0-1.865-1.03,0-.807,1.03-.807l1.114.139a2.042,2.042,0,0,0,1.044-.237,1.548,1.548,0,0,0,.6-1.016,31.909,31.909,0,0,0,.362-6.293V243.525l-2.618-.056c-.316,0-.474-.175-.474-.529a1.873,1.873,0,0,1,.349-1.351.973.973,0,0,1,.571-.32h2.172v-.083q0-11.668,4.9-14.509a7.86,7.86,0,0,1,4.065-1,8.2,8.2,0,0,1,3.049.432q1.017.432,1.49.7a6.567,6.567,0,0,1,.89.6,2.288,2.288,0,0,1,.947,1.629,1.573,1.573,0,0,1-.529,1.253,1.621,1.621,0,0,1-1.058.46,6.585,6.585,0,0,1-.836-.042,1.748,1.748,0,0,1-.64-.237,4.8,4.8,0,0,1-1.295-1.072l-.836-.947a2.09,2.09,0,0,0-.487-.4,3.617,3.617,0,0,0-1.768-.362,2.187,2.187,0,0,0-1.783.794,5.818,5.818,0,0,0-1.016,2.436,56.863,56.863,0,0,0-.557,9.858v.5h5.848q.891,0,.891.752a1.859,1.859,0,0,1-.375,1.295q-.376.4-.6.4l-5.764-.111v14.4a30.254,30.254,0,0,0,.334,6.154q.334,1,.793,1.2a3.16,3.16,0,0,0,1.212.194l2.757-.194q1.253,0,1.253.974t-2.033.974l-6.4-.417a15.056,15.056,0,0,0-2.6.209A12.363,12.363,0,0,1,177.883,267.306Z" transform="translate(-176.018 -225.676)" fill="#1e1e1b"></path><path id="Path_299" data-name="Path 299" d="M249.047,281.457q.807,0,.808.738T248.24,283.6a9.074,9.074,0,0,0-2.256,1.211q-.641.542-.947.807a1.072,1.072,0,0,1-.724.264,1.715,1.715,0,0,1-1.392-.7,14.323,14.323,0,0,1-1.5-2.98,10.228,10.228,0,0,1-3.857,2.743,11.761,11.761,0,0,1-4.5.933,9.221,9.221,0,0,1-6.516-2.144,7.619,7.619,0,0,1-2.311-5.876,7.014,7.014,0,0,1,3.494-6.057,15.807,15.807,0,0,1,8.925-2.325,21.781,21.781,0,0,1,4.261.557v-2.172q0-7.156-6.043-7.156a4.959,4.959,0,0,0-4.706,2.951q-1.309,2.646-2.562,2.646a2.535,2.535,0,0,1-1.6-.529,1.624,1.624,0,0,1-.683-1.337,2.919,2.919,0,0,1,.836-1.8,8.377,8.377,0,0,1,2.228-1.8,14.03,14.03,0,0,1,7.212-1.921q6.96,0,8.994,4.539a9.336,9.336,0,0,1,.752,3.954v11.111a5.726,5.726,0,0,0,.418,2.757,1.335,1.335,0,0,0,1.169.612,2.889,2.889,0,0,0,1.225-.223A2.106,2.106,0,0,1,249.047,281.457Zm-8.131-8.827a10.136,10.136,0,0,0-5.068-1.142,7.468,7.468,0,0,0-4.915,1.532,5.054,5.054,0,0,0-1.852,4.107,6.493,6.493,0,0,0,1.42,4.289,4.526,4.526,0,0,0,3.648,1.712q4.761,0,6.85-3.119a16.255,16.255,0,0,1-.084-1.726Z" transform="translate(-202.554 -243.976)" fill="#1e1e1b"></path><path id="Path_300" data-name="Path 300" d="M291.35,285.606q-1.865,0-1.865-1.03,0-.807,1.03-.807l1.392.139a2.12,2.12,0,0,0,1.058-.237,1.61,1.61,0,0,0,.64-1.016,26.906,26.906,0,0,0,.446-6.293v-8.326a10.6,10.6,0,0,0-.348-3.55,2.124,2.124,0,0,0-.835-.974,5.187,5.187,0,0,0-1.587-.431q-1.1-.167-1.1-.864,0-.64,1.42-.919a18.206,18.206,0,0,0,4.567-1.392,6.151,6.151,0,0,1,2.325-.974.56.56,0,0,1,.626.64,1.822,1.822,0,0,1-.125.641q-.125.334-.265.807a22.739,22.739,0,0,0-.334,3.565q2.423-4.067,5.848-5.068a7.672,7.672,0,0,1,2.242-.306,3.142,3.142,0,0,1,2.2.891,2.584,2.584,0,0,1,.961,1.893,3.669,3.669,0,0,1-.223,1.476,2.848,2.848,0,0,1-.557.807,2,2,0,0,1-1.3.724,1.218,1.218,0,0,1-.877-.293,4.055,4.055,0,0,1-.7-1.072q-.7-1.393-1.56-1.392a3.738,3.738,0,0,0-1.642.375,6.089,6.089,0,0,0-1.56,1.128,12.6,12.6,0,0,0-2.869,4.316v8.3a34.387,34.387,0,0,0,.293,6.224q.292.933.724,1.114a3.136,3.136,0,0,0,1.183.181l2.479-.223a1.4,1.4,0,0,1,.891.264.8.8,0,0,1,.334.654q0,1.03-2.033,1.03l-5.876-.417a16.555,16.555,0,0,0-2.687.209A14.365,14.365,0,0,1,291.35,285.606Z" transform="translate(-238.461 -243.976)" fill="#1e1e1b"></path><path id="Path_301" data-name="Path 301" d="M345.361,285.606q-1.837,0-1.837-1.03,0-.807,1.03-.807l1.392.139a2.121,2.121,0,0,0,1.058-.237,1.608,1.608,0,0,0,.64-1.016,26.907,26.907,0,0,0,.446-6.293v-8.326a10.231,10.231,0,0,0-.362-3.522,2.189,2.189,0,0,0-.849-1,5.154,5.154,0,0,0-1.573-.431q-1.086-.167-1.086-.864,0-.64,1.42-.919a18.208,18.208,0,0,0,4.567-1.392,6.152,6.152,0,0,1,2.325-.974.56.56,0,0,1,.626.64,1.823,1.823,0,0,1-.125.641q-.125.334-.265.807a17.469,17.469,0,0,0-.306,2.9,11.164,11.164,0,0,1,6.21-4.65,8.879,8.879,0,0,1,2.4-.334q6.516,0,8.047,5.791a11.516,11.516,0,0,1,6.544-5.374,9.16,9.16,0,0,1,8.883,1.949q2.227,2.367,2.228,7.379v7.686a29.781,29.781,0,0,0,.334,5.973,2.308,2.308,0,0,0,.752,1.336,2.121,2.121,0,0,0,1.059.237l1.392-.139q1.03,0,1.03.807,0,1.03-1.866,1.03a13.138,13.138,0,0,1-2.256-.209,15.031,15.031,0,0,0-2.576-.209,15.767,15.767,0,0,0-2.617.209,13.873,13.873,0,0,1-2.3.209q-1.866,0-1.866-1.03,0-.807,1.03-.807l1.393.139a2.12,2.12,0,0,0,1.058-.237,1.7,1.7,0,0,0,.668-1.016,26.692,26.692,0,0,0,.446-6.293v-6.349q0-6.1-3.286-7.435a6.126,6.126,0,0,0-2.269-.418,5.958,5.958,0,0,0-2.27.432,6.692,6.692,0,0,0-1.977,1.267,11.127,11.127,0,0,0-3.063,4.789v7.714a29.732,29.732,0,0,0,.334,5.973,2.308,2.308,0,0,0,.752,1.336,2.122,2.122,0,0,0,1.059.237l1.392-.139q1.03,0,1.03.807,0,1.03-1.866,1.03a13.138,13.138,0,0,1-2.256-.209,15.028,15.028,0,0,0-2.576-.209,15.767,15.767,0,0,0-2.617.209,13.873,13.873,0,0,1-2.3.209q-1.866,0-1.866-1.03,0-.807,1.03-.807l1.392.139a2.12,2.12,0,0,0,1.058-.237,1.7,1.7,0,0,0,.668-1.016,26.694,26.694,0,0,0,.446-6.293v-6.349q0-6.1-3.258-7.435a6.346,6.346,0,0,0-2.3-.418,5.962,5.962,0,0,0-2.27.432,7.053,7.053,0,0,0-2,1.267,11.257,11.257,0,0,0-3.035,4.789v7.714a29.729,29.729,0,0,0,.334,5.973,2.308,2.308,0,0,0,.752,1.336,2.122,2.122,0,0,0,1.059.237l1.392-.139q1.029,0,1.03.807,0,1.03-1.838,1.03a12.2,12.2,0,0,1-2.2-.209,14.692,14.692,0,0,0-2.618-.209,15.9,15.9,0,0,0-2.687.209A13.384,13.384,0,0,1,345.361,285.606Z" transform="translate(-268.199 -243.976)" fill="#1e1e1b"></path></g></g></g></svg> 